<?xml version="1.0" standalone="no"?>
<!DOCTYPE svg PUBLIC "-//W3C//DTD SVG 20010904//EN"
 "http://www.w3.org/TR/2001/REC-SVG-20010904/DTD/svg10.dtd">
<svg version="1.0" xmlns="http://www.w3.org/2000/svg"
 width="466.000000pt" height="466.000000pt" viewBox="0 0 466.000000 466.000000"
 preserveAspectRatio="xMidYMid meet">
<metadata>
Created by potrace 1.14, written by Peter Selinger 2001-2017
</metadata>
<g transform="translate(0.000000,466.000000) scale(0.100000,-0.100000)"
fill="#000000" stroke="none">
<path d="M1610 3844 c-17 -36 -30 -70 -30 -75 0 -4 -6 -23 -14 -41 -8 -18 -22
-53 -31 -78 -10 -25 -23 -58 -30 -75 -7 -16 -20 -49 -29 -72 -9 -24 -23 -62
-32 -85 -9 -24 -22 -56 -29 -73 -14 -33 -40 -101 -60 -155 -7 -19 -27 -71 -45
-115 -32 -79 -50 -127 -75 -195 -7 -19 -27 -71 -45 -115 -18 -44 -38 -96 -45
-115 -7 -19 -27 -71 -45 -115 -18 -44 -38 -96 -45 -115 -8 -19 -35 -89 -60
-155 -26 -66 -52 -136 -60 -155 -18 -49 -74 -189 -91 -228 -8 -18 -14 -37 -14
-43 0 -6 -21 -54 -47 -107 -54 -110 -138 -203 -210 -236 -38 -17 -43 -23 -43
-53 l0 -33 357 2 358 3 0 30 c0 32 6 29 -115 55 -63 14 -128 44 -147 68 -78
99 -63 242 62 572 27 69 53 141 60 159 7 19 21 38 31 42 11 4 179 8 375 8 274
1 359 -2 367 -11 5 -7 17 -33 25 -58 9 -25 26 -70 37 -100 12 -30 25 -66 30
-80 5 -14 18 -50 30 -80 11 -30 28 -74 36 -97 8 -23 28 -79 45 -125 18 -46 36
-113 42 -151 10 -61 9 -70 -10 -95 -21 -28 -87 -54 -178 -69 -39 -6 -51 -12
-53 -28 -5 -45 -14 -44 548 -45 l535 -1 3 34 c3 32 0 35 -42 51 -53 20 -117
80 -144 133 -11 21 -36 81 -56 133 -20 52 -41 104 -45 115 -5 11 -16 38 -24
60 -17 45 -101 261 -122 315 -7 19 -34 89 -60 155 -25 66 -52 136 -60 155 -39
101 -108 279 -120 310 -19 51 -55 142 -64 165 -5 11 -15 38 -24 60 -43 114
-79 208 -96 250 -5 11 -15 38 -24 60 -43 114 -79 208 -96 250 -5 11 -15 38
-24 60 -42 112 -50 133 -64 163 l-16 32 -124 0 -124 0 -29 -66z m-87 -521 c3
-10 19 -55 36 -101 17 -46 37 -102 45 -125 8 -23 25 -67 36 -97 12 -30 25 -66
30 -80 5 -14 18 -50 30 -80 12 -30 32 -86 45 -125 24 -68 33 -92 75 -205 11
-30 20 -60 20 -67 0 -10 -72 -13 -335 -13 l-335 0 0 25 c0 14 4 33 10 43 5 9
26 60 45 112 20 52 43 113 52 135 8 22 22 58 30 80 9 22 19 49 24 60 4 11 24
63 44 115 20 52 42 111 49 130 27 71 49 126 62 157 8 17 14 36 14 42 0 18 17
13 23 -6z"/>
<path d="M3038 3899 c-5 -3 -8 -21 -6 -40 l3 -34 68 -7 c97 -11 139 -36 166
-97 l21 -50 0 -1148 c0 -1089 -1 -1153 -19 -1253 -48 -258 -115 -356 -291
-420 -27 -10 -68 -21 -90 -25 -38 -6 -40 -9 -40 -41 0 -22 6 -37 15 -41 24 -9
259 16 339 36 311 78 539 292 610 571 47 180 49 230 53 1300 3 915 5 1019 20
1060 9 25 22 50 28 56 25 25 78 44 142 51 l68 8 3 38 c2 25 -1 37 -10 38 -66
4 -1072 3 -1080 -2z"/>
</g>
</svg>
